<svg width="32" height="32" viewBox="0 0 32 32" fill="none" xmlns="http://www.w3.org/2000/svg">
<path d="M22 6.66675H27.2C27.4122 6.66675 27.6157 6.75103 27.7657 6.90106C27.9157 7.05109 28 7.25457 28 7.46675V27.2001C28 27.4123 27.9157 27.6157 27.7657 27.7658C27.6157 27.9158 27.4122 28.0001 27.2 28.0001H4.8C4.58783 28.0001 4.38434 27.9158 4.23431 27.7658C4.08429 27.6157 4 27.4123 4 27.2001V7.46675C4 7.25457 4.08429 7.05109 4.23431 6.90106C4.38434 6.75103 4.58783 6.66675 4.8 6.66675H10" stroke="#005044" stroke-width="2" stroke-linecap="round" stroke-linejoin="round"/>
<path d="M16.0004 10.6667L14.667 7.33341M21.7057 8.43875L21.979 6.79875C21.9937 6.71136 21.9937 6.62214 21.979 6.53475L21.7044 4.89475C21.6006 4.27255 21.2796 3.70728 20.7985 3.29936C20.3173 2.89145 19.7072 2.6673 19.0764 2.66675H12.9257C12.2945 2.66667 11.6836 2.89053 11.2019 3.2985C10.7202 3.70647 10.3989 4.2721 10.295 4.89475L10.0217 6.53475C10.0071 6.62214 10.0071 6.71136 10.0217 6.79875L10.295 8.43875C10.3989 9.0614 10.7202 9.62702 11.2019 10.035C11.6836 10.443 12.2945 10.6668 12.9257 10.6667H19.075C19.7063 10.6668 20.3171 10.443 20.7988 10.035C21.2805 9.62702 21.6019 9.0614 21.7057 8.43875Z" stroke="#005044" stroke-width="2" stroke-linecap="round" stroke-linejoin="round"/>
</svg>
